<svg xmlns="http://www.w3.org/2000/svg" width="16" height="16"><path fill="#000" d="M15.5 4a.5.5 0 0 1 .5.5v5.75A2.75 2.75 0 0 1 13.25 13H3.707L.854 15.854A.5.5 0 0 1 0 15.5v-9a.5.5 0 0 1 1 0v7.793L3.293 12h9.957A1.75 1.75 0 0 0 15 10.25V4.5a.5.5 0 0 1 .5-.5ZM15.143.146a.5.5 0 0 1 .707.708l-8.996 9a.5.5 0 0 1-.708-.708L13.29 2H7.482a.5.5 0 0 1 0-1h6.807l.854-.854ZM2.436.4a.599.599 0 0 1 1.128 0l.438 1.234a.6.6 0 0 0 .365.365l1.234.438a.599.599 0 0 1 0 1.128l-1.234.438a.6.6 0 0 0-.365.365l-.438 1.234a.599.599 0 0 1-1.128 0l-.438-1.234a.6.6 0 0 0-.365-.365L.399 3.564a.599.599 0 0 1 0-1.128l1.234-.438a.6.6 0 0 0 .365-.365L2.436.399Z"/></svg>
