<svg xmlns="http://www.w3.org/2000/svg" width="16" height="16"><path fill="#000" d="M13.25 1A2.75 2.75 0 0 1 16 3.75v6.5A2.75 2.75 0 0 1 13.25 13H3.707L.854 15.854A.5.5 0 0 1 0 15.5v-9a.5.5 0 0 1 .99-.1l.01.1v7.793L3.293 12h9.957A1.75 1.75 0 0 0 15 10.25v-6.5A1.75 1.75 0 0 0 13.25 2H7.5a.5.5 0 0 1 0-1h5.75ZM7.53 4.832a.5.5 0 0 1 .94 0l.365 1.029a.5.5 0 0 0 .304.304l1.028.365a.5.5 0 0 1 0 .941l-1.028.364a.5.5 0 0 0-.304.304l-.364 1.028a.5.5 0 0 1-.942 0L7.165 8.14a.5.5 0 0 0-.304-.304l-1.028-.364a.5.5 0 0 1 0-.941l1.028-.365a.5.5 0 0 0 .304-.304l.364-1.029ZM2.435.4a.599.599 0 0 1 1.128 0l.438 1.234a.6.6 0 0 0 .365.365l1.234.437a.6.6 0 0 1 0 1.13l-1.234.437a.6.6 0 0 0-.365.364l-.438 1.235a.599.599 0 0 1-1.128 0l-.438-1.235a.6.6 0 0 0-.365-.364L.399 3.565a.6.6 0 0 1 0-1.13l1.234-.437a.6.6 0 0 0 .365-.365L2.436.4Z"/></svg>
